<svg width="418" height="237" viewBox="0 0 418 237" fill="none" xmlns="http://www.w3.org/2000/svg">
<mask id="path-1-outside-1_2_2" maskUnits="userSpaceOnUse" x="-0.454498" y="-0.0361328" width="419" height="237" fill="black">
<rect fill="white" x="-0.454498" y="-0.0361328" width="419" height="237"/>
<path d="M14.1136 28.4795C17.8949 27.2295 21.4418 26.0732 24.7543 25.0107C28.098 23.9482 31.6136 22.9482 35.3011 22.0107C38.9886 21.042 42.5199 20.2764 45.8949 19.7139C48.4886 19.2764 51.1449 19.0576 53.8636 19.0576C58.3949 19.0576 61.3636 19.1826 62.7699 19.4326C64.8949 19.8389 66.8949 20.4951 68.7699 21.4014C70.6761 22.3076 72.3636 23.5264 73.8324 25.0576C75.3324 26.5576 76.5511 28.3389 77.4886 30.4014C77.8636 31.2451 78.0511 32.1357 78.0511 33.0732C78.0511 36.5732 76.1293 40.8857 72.2855 46.0107C68.473 51.1357 64.6293 55.6045 60.7543 59.417C56.9105 63.2295 54.0355 65.9639 52.1293 67.6201L60.5668 97.1982L48.2855 106.058L26.7699 44.6045C26.7074 44.6045 26.4105 44.9014 25.8793 45.4951C25.348 46.0889 24.6449 46.8701 23.7699 47.8389C22.9261 48.7764 22.3949 49.3545 22.1761 49.5732C22.0824 49.5732 21.7699 48.9014 21.2386 47.5576C20.7386 46.2139 20.0511 44.3545 19.1761 41.9795C18.3324 39.5732 17.3793 36.917 16.3168 34.0107C15.223 31.0732 14.4886 29.2295 14.1136 28.4795ZM44.4418 41.5107L48.2855 55.3389C50.223 53.3701 52.6293 50.6826 55.5043 47.2764C58.3793 43.8701 59.8168 41.4014 59.8168 39.8701C59.8168 39.2764 59.5668 38.9326 59.0668 38.8389C57.6605 38.5264 56.2699 38.3701 54.8949 38.3701C50.7699 38.3701 47.2855 39.417 44.4418 41.5107ZM115.174 52.1982C117.393 53.3857 119.19 54.9951 120.565 57.0264C121.971 59.0264 122.987 61.292 123.612 63.8232C124.268 66.3232 124.596 68.9326 124.596 71.6514C124.596 73.9014 124.409 76.0732 124.034 78.167C123.69 80.2607 123.206 82.1826 122.581 83.9326C121.956 85.6826 121.221 87.167 120.377 88.3857C118.409 91.3232 116.299 93.8545 114.049 95.9795C111.799 98.1045 109.502 99.8232 107.159 101.136C104.815 102.417 102.487 103.354 100.174 103.948C97.893 104.573 95.6274 104.886 93.3774 104.886C90.7211 104.886 88.1899 104.464 85.7836 103.62C83.4086 102.808 81.3774 101.729 79.6899 100.386C76.9086 98.0732 74.7368 94.9639 73.1743 91.0576C71.6118 87.1201 70.8305 82.9639 70.8305 78.5889C70.8305 71.0576 73.0024 64.9795 77.3461 60.3545C81.0649 56.3857 84.9086 53.4014 88.8774 51.4014C92.8461 49.3701 96.9086 48.3545 101.065 48.3545C103.502 48.3545 105.846 48.667 108.096 49.292C110.346 49.8857 112.706 50.8545 115.174 52.1982ZM112.409 60.0732C111.877 62.4482 110.721 64.542 108.94 66.3545C107.19 68.167 105.471 69.0732 103.784 69.0732C102.94 69.0732 102.19 68.8545 101.534 68.417C100.596 67.667 100.127 66.3545 100.127 64.4795C100.127 63.042 100.596 61.6201 101.534 60.2139C102.502 58.8076 104.018 57.6982 106.081 56.8857C104.018 56.8857 102.018 57.2764 100.081 58.0576C98.1743 58.8389 96.5336 59.8545 95.1586 61.1045C93.7836 62.3232 92.6743 63.7139 91.8305 65.2764C91.018 66.8076 90.6118 68.3545 90.6118 69.917C90.6118 72.8232 91.9555 75.1357 94.643 76.8545C97.143 78.4482 99.518 79.2451 101.768 79.2451C103.987 79.2451 105.956 78.5107 107.674 77.042C109.393 75.542 110.706 73.6357 111.612 71.3232C112.518 68.9795 112.971 66.667 112.971 64.3857C112.971 62.8232 112.784 61.3857 112.409 60.0732ZM118.735 24.6357L142.547 14.6514L146.016 68.792L165.61 58.0576L185.954 61.1045L159.422 81.4482L184.407 100.292L185.532 119.089L148.688 92.6045L149.86 115.62L127.547 116.042L123.329 34.6201L116.438 36.167L118.735 24.6357ZM220.499 77.042L231.796 90.6826C230.889 93.3076 228.733 95.7139 225.327 97.9014C221.952 100.089 217.921 101.808 213.233 103.058C208.577 104.339 203.921 104.979 199.264 104.979C195.139 104.979 191.452 104.433 188.202 103.339C184.983 102.245 182.499 100.589 180.749 98.3701C177.717 94.5576 176.202 89.6826 176.202 83.7451C176.202 79.0576 177.046 74.4482 178.733 69.917C180.452 65.3545 182.264 62.167 184.171 60.3545C186.452 58.1982 188.921 56.4014 191.577 54.9639C194.264 53.5264 197.046 52.4482 199.921 51.7295C202.796 51.0107 205.749 50.6514 208.78 50.6514C212.749 50.6514 216.514 51.292 220.077 52.5732C223.671 53.8232 226.811 55.6514 229.499 58.0576L203.764 88.7607C206.046 88.7607 208.202 88.292 210.233 87.3545C212.296 86.3857 214.186 85.0264 215.905 83.2764C217.624 81.4951 219.155 79.417 220.499 77.042ZM207.514 66.1201C205.983 65.3389 204.421 64.9482 202.827 64.9482C201.139 64.9482 199.499 65.292 197.905 65.9795C196.342 66.667 195.233 67.4795 194.577 68.417C192.639 70.917 191.671 73.667 191.671 76.667C191.671 77.7607 191.78 78.8076 191.999 79.8076C192.217 80.8076 192.592 82.1826 193.124 83.9326L207.514 66.1201ZM183.421 32.3232L208.405 18.4951L219.139 34.9951L188.811 40.7607L183.421 32.3232ZM270.606 41.1357L273.278 104.136H270.419C268.544 104.136 266.169 104.073 263.294 103.948C260.419 103.854 257.809 103.651 255.465 103.339C253.122 103.058 251.387 102.683 250.262 102.214L247.169 41.8857L217.965 42.3076L218.387 23.8389L293.247 18.8701L294.419 39.2139L270.606 41.1357ZM346.589 43.8076L325.589 57.542C324.182 54.042 319.479 52.292 311.479 52.292C309.667 52.292 307.807 53.5889 305.901 56.1826C303.995 58.7764 303.042 61.6982 303.042 64.9482C303.198 67.417 303.932 69.792 305.245 72.0732C306.557 74.3232 308.886 75.5264 312.229 75.6826C314.729 75.6826 317.354 75.0107 320.104 73.667C322.854 72.3232 325.229 69.6357 327.229 65.6045C327.354 65.8545 328.651 67.0264 331.12 69.1201C333.589 71.2139 336.104 73.3076 338.667 75.4014C341.261 77.4951 343.167 79.042 344.386 80.042C342.011 85.7295 338.87 90.1826 334.964 93.4014C331.057 96.6201 326.964 98.8232 322.682 100.011C318.401 101.198 314.151 101.792 309.932 101.792C304.026 101.792 298.823 100.683 294.323 98.4639C289.854 96.2139 286.182 92.3857 283.307 86.9795C280.432 81.542 278.682 74.1982 278.057 64.9482C277.995 64.042 277.964 62.667 277.964 60.8232C277.964 56.1982 278.511 51.7607 279.604 47.5107C280.667 43.2607 282.417 39.4326 284.854 36.0264C287.323 32.5889 290.714 29.792 295.026 27.6357C299.339 25.4795 304.557 24.3545 310.682 24.2607C314.745 24.2607 318.745 24.7451 322.682 25.7139C326.62 26.6514 330.229 27.9795 333.511 29.6982C336.792 31.3857 339.604 33.4639 341.948 35.9326C344.323 38.3701 345.87 40.9951 346.589 43.8076ZM376.821 74.5576L373.352 73.0107L378.743 60.7295L405.227 70.7139L399.087 122.558L375.274 120.636C376.118 118.073 377.306 114.401 378.837 109.62C380.368 104.87 381.352 101.761 381.79 100.292C379.759 101.292 375.665 101.792 369.509 101.792C363.602 101.792 358.399 100.683 353.899 98.4639C349.431 96.2139 345.759 92.3857 342.884 86.9795C340.009 81.542 338.259 74.1982 337.634 64.9482C337.571 64.042 337.54 62.667 337.54 60.8232C337.54 56.1982 338.087 51.7607 339.181 47.5107C340.243 43.2607 341.993 39.4326 344.431 36.0264C346.899 32.5889 350.29 29.792 354.602 27.6357C358.915 25.4795 364.134 24.3545 370.259 24.2607C374.321 24.2607 378.321 24.7451 382.259 25.7139C386.196 26.6514 389.806 27.9795 393.087 29.6982C396.368 31.3857 399.181 33.4639 401.524 35.9326C403.899 38.3701 405.446 40.9951 406.165 43.8076L385.165 57.542C383.759 54.042 379.056 52.292 371.056 52.292C369.243 52.292 367.384 53.5889 365.477 56.1826C363.571 58.7764 362.618 61.6982 362.618 64.9482C362.774 67.417 363.509 69.792 364.821 72.0732C366.134 74.3232 368.462 75.5264 371.806 75.6826C372.087 75.6826 372.571 75.6045 373.259 75.4482C373.977 75.2607 374.602 75.1045 375.134 74.9795C375.696 74.8232 376.259 74.6826 376.821 74.5576ZM181.947 204.558L158.931 206.104L152.79 196.12L147.4 209.948L132.4 210.323L114.775 128.151L142.009 130.823L147.025 158.854L152.369 148.495L159.681 161.573L163.525 118.167L190.009 116.245L181.947 204.558ZM216.164 208.776L195.023 209.948L193.898 159.651L186.96 161.198L189.257 149.667L213.07 139.683L216.164 208.776ZM200.789 111.276C203.007 111.276 204.914 111.651 206.507 112.401C208.132 113.12 209.46 114.011 210.492 115.073C211.523 116.104 212.226 117.011 212.601 117.792C212.976 118.636 213.164 119.558 213.164 120.558C213.164 122.089 212.835 123.651 212.179 125.245C211.523 126.808 210.726 128.151 209.789 129.276C208.851 130.401 207.96 131.058 207.117 131.245C205.492 131.495 204.273 131.62 203.46 131.62C201.398 131.62 199.601 131.261 198.07 130.542C196.539 129.823 195.32 128.776 194.414 127.401C193.507 126.026 192.945 124.417 192.726 122.573C192.726 119.917 193.367 117.433 194.648 115.12C195.96 112.808 198.007 111.526 200.789 111.276ZM212.88 121.636L236.693 111.651L240.162 165.792L259.755 155.058L280.099 158.104L253.568 178.448L278.552 197.292L279.677 216.089L242.834 189.604L244.005 212.62L221.693 213.042L217.474 131.62L210.584 133.167L212.88 121.636ZM296.785 208.776L275.644 209.948L274.519 159.651L267.582 161.198L269.879 149.667L293.691 139.683L296.785 208.776ZM281.41 111.276C283.629 111.276 285.535 111.651 287.129 112.401C288.754 113.12 290.082 114.011 291.113 115.073C292.144 116.104 292.847 117.011 293.222 117.792C293.597 118.636 293.785 119.558 293.785 120.558C293.785 122.089 293.457 123.651 292.801 125.245C292.144 126.808 291.347 128.151 290.41 129.276C289.472 130.401 288.582 131.058 287.738 131.245C286.113 131.495 284.894 131.62 284.082 131.62C282.019 131.62 280.222 131.261 278.691 130.542C277.16 129.823 275.941 128.776 275.035 127.401C274.129 126.026 273.566 124.417 273.347 122.573C273.347 119.917 273.988 117.433 275.269 115.12C276.582 112.808 278.629 111.526 281.41 111.276Z"/>
</mask>
<path d="M14.1136 28.4795C17.8949 27.2295 21.4418 26.0732 24.7543 25.0107C28.098 23.9482 31.6136 22.9482 35.3011 22.0107C38.9886 21.042 42.5199 20.2764 45.8949 19.7139C48.4886 19.2764 51.1449 19.0576 53.8636 19.0576C58.3949 19.0576 61.3636 19.1826 62.7699 19.4326C64.8949 19.8389 66.8949 20.4951 68.7699 21.4014C70.6761 22.3076 72.3636 23.5264 73.8324 25.0576C75.3324 26.5576 76.5511 28.3389 77.4886 30.4014C77.8636 31.2451 78.0511 32.1357 78.0511 33.0732C78.0511 36.5732 76.1293 40.8857 72.2855 46.0107C68.473 51.1357 64.6293 55.6045 60.7543 59.417C56.9105 63.2295 54.0355 65.9639 52.1293 67.6201L60.5668 97.1982L48.2855 106.058L26.7699 44.6045C26.7074 44.6045 26.4105 44.9014 25.8793 45.4951C25.348 46.0889 24.6449 46.8701 23.7699 47.8389C22.9261 48.7764 22.3949 49.3545 22.1761 49.5732C22.0824 49.5732 21.7699 48.9014 21.2386 47.5576C20.7386 46.2139 20.0511 44.3545 19.1761 41.9795C18.3324 39.5732 17.3793 36.917 16.3168 34.0107C15.223 31.0732 14.4886 29.2295 14.1136 28.4795ZM44.4418 41.5107L48.2855 55.3389C50.223 53.3701 52.6293 50.6826 55.5043 47.2764C58.3793 43.8701 59.8168 41.4014 59.8168 39.8701C59.8168 39.2764 59.5668 38.9326 59.0668 38.8389C57.6605 38.5264 56.2699 38.3701 54.8949 38.3701C50.7699 38.3701 47.2855 39.417 44.4418 41.5107ZM115.174 52.1982C117.393 53.3857 119.19 54.9951 120.565 57.0264C121.971 59.0264 122.987 61.292 123.612 63.8232C124.268 66.3232 124.596 68.9326 124.596 71.6514C124.596 73.9014 124.409 76.0732 124.034 78.167C123.69 80.2607 123.206 82.1826 122.581 83.9326C121.956 85.6826 121.221 87.167 120.377 88.3857C118.409 91.3232 116.299 93.8545 114.049 95.9795C111.799 98.1045 109.502 99.8232 107.159 101.136C104.815 102.417 102.487 103.354 100.174 103.948C97.893 104.573 95.6274 104.886 93.3774 104.886C90.7211 104.886 88.1899 104.464 85.7836 103.62C83.4086 102.808 81.3774 101.729 79.6899 100.386C76.9086 98.0732 74.7368 94.9639 73.1743 91.0576C71.6118 87.1201 70.8305 82.9639 70.8305 78.5889C70.8305 71.0576 73.0024 64.9795 77.3461 60.3545C81.0649 56.3857 84.9086 53.4014 88.8774 51.4014C92.8461 49.3701 96.9086 48.3545 101.065 48.3545C103.502 48.3545 105.846 48.667 108.096 49.292C110.346 49.8857 112.706 50.8545 115.174 52.1982ZM112.409 60.0732C111.877 62.4482 110.721 64.542 108.94 66.3545C107.19 68.167 105.471 69.0732 103.784 69.0732C102.94 69.0732 102.19 68.8545 101.534 68.417C100.596 67.667 100.127 66.3545 100.127 64.4795C100.127 63.042 100.596 61.6201 101.534 60.2139C102.502 58.8076 104.018 57.6982 106.081 56.8857C104.018 56.8857 102.018 57.2764 100.081 58.0576C98.1743 58.8389 96.5336 59.8545 95.1586 61.1045C93.7836 62.3232 92.6743 63.7139 91.8305 65.2764C91.018 66.8076 90.6118 68.3545 90.6118 69.917C90.6118 72.8232 91.9555 75.1357 94.643 76.8545C97.143 78.4482 99.518 79.2451 101.768 79.2451C103.987 79.2451 105.956 78.5107 107.674 77.042C109.393 75.542 110.706 73.6357 111.612 71.3232C112.518 68.9795 112.971 66.667 112.971 64.3857C112.971 62.8232 112.784 61.3857 112.409 60.0732ZM118.735 24.6357L142.547 14.6514L146.016 68.792L165.61 58.0576L185.954 61.1045L159.422 81.4482L184.407 100.292L185.532 119.089L148.688 92.6045L149.86 115.62L127.547 116.042L123.329 34.6201L116.438 36.167L118.735 24.6357ZM220.499 77.042L231.796 90.6826C230.889 93.3076 228.733 95.7139 225.327 97.9014C221.952 100.089 217.921 101.808 213.233 103.058C208.577 104.339 203.921 104.979 199.264 104.979C195.139 104.979 191.452 104.433 188.202 103.339C184.983 102.245 182.499 100.589 180.749 98.3701C177.717 94.5576 176.202 89.6826 176.202 83.7451C176.202 79.0576 177.046 74.4482 178.733 69.917C180.452 65.3545 182.264 62.167 184.171 60.3545C186.452 58.1982 188.921 56.4014 191.577 54.9639C194.264 53.5264 197.046 52.4482 199.921 51.7295C202.796 51.0107 205.749 50.6514 208.78 50.6514C212.749 50.6514 216.514 51.292 220.077 52.5732C223.671 53.8232 226.811 55.6514 229.499 58.0576L203.764 88.7607C206.046 88.7607 208.202 88.292 210.233 87.3545C212.296 86.3857 214.186 85.0264 215.905 83.2764C217.624 81.4951 219.155 79.417 220.499 77.042ZM207.514 66.1201C205.983 65.3389 204.421 64.9482 202.827 64.9482C201.139 64.9482 199.499 65.292 197.905 65.9795C196.342 66.667 195.233 67.4795 194.577 68.417C192.639 70.917 191.671 73.667 191.671 76.667C191.671 77.7607 191.78 78.8076 191.999 79.8076C192.217 80.8076 192.592 82.1826 193.124 83.9326L207.514 66.1201ZM183.421 32.3232L208.405 18.4951L219.139 34.9951L188.811 40.7607L183.421 32.3232ZM270.606 41.1357L273.278 104.136H270.419C268.544 104.136 266.169 104.073 263.294 103.948C260.419 103.854 257.809 103.651 255.465 103.339C253.122 103.058 251.387 102.683 250.262 102.214L247.169 41.8857L217.965 42.3076L218.387 23.8389L293.247 18.8701L294.419 39.2139L270.606 41.1357ZM346.589 43.8076L325.589 57.542C324.182 54.042 319.479 52.292 311.479 52.292C309.667 52.292 307.807 53.5889 305.901 56.1826C303.995 58.7764 303.042 61.6982 303.042 64.9482C303.198 67.417 303.932 69.792 305.245 72.0732C306.557 74.3232 308.886 75.5264 312.229 75.6826C314.729 75.6826 317.354 75.0107 320.104 73.667C322.854 72.3232 325.229 69.6357 327.229 65.6045C327.354 65.8545 328.651 67.0264 331.12 69.1201C333.589 71.2139 336.104 73.3076 338.667 75.4014C341.261 77.4951 343.167 79.042 344.386 80.042C342.011 85.7295 338.87 90.1826 334.964 93.4014C331.057 96.6201 326.964 98.8232 322.682 100.011C318.401 101.198 314.151 101.792 309.932 101.792C304.026 101.792 298.823 100.683 294.323 98.4639C289.854 96.2139 286.182 92.3857 283.307 86.9795C280.432 81.542 278.682 74.1982 278.057 64.9482C277.995 64.042 277.964 62.667 277.964 60.8232C277.964 56.1982 278.511 51.7607 279.604 47.5107C280.667 43.2607 282.417 39.4326 284.854 36.0264C287.323 32.5889 290.714 29.792 295.026 27.6357C299.339 25.4795 304.557 24.3545 310.682 24.2607C314.745 24.2607 318.745 24.7451 322.682 25.7139C326.62 26.6514 330.229 27.9795 333.511 29.6982C336.792 31.3857 339.604 33.4639 341.948 35.9326C344.323 38.3701 345.87 40.9951 346.589 43.8076ZM376.821 74.5576L373.352 73.0107L378.743 60.7295L405.227 70.7139L399.087 122.558L375.274 120.636C376.118 118.073 377.306 114.401 378.837 109.62C380.368 104.87 381.352 101.761 381.79 100.292C379.759 101.292 375.665 101.792 369.509 101.792C363.602 101.792 358.399 100.683 353.899 98.4639C349.431 96.2139 345.759 92.3857 342.884 86.9795C340.009 81.542 338.259 74.1982 337.634 64.9482C337.571 64.042 337.54 62.667 337.54 60.8232C337.54 56.1982 338.087 51.7607 339.181 47.5107C340.243 43.2607 341.993 39.4326 344.431 36.0264C346.899 32.5889 350.29 29.792 354.602 27.6357C358.915 25.4795 364.134 24.3545 370.259 24.2607C374.321 24.2607 378.321 24.7451 382.259 25.7139C386.196 26.6514 389.806 27.9795 393.087 29.6982C396.368 31.3857 399.181 33.4639 401.524 35.9326C403.899 38.3701 405.446 40.9951 406.165 43.8076L385.165 57.542C383.759 54.042 379.056 52.292 371.056 52.292C369.243 52.292 367.384 53.5889 365.477 56.1826C363.571 58.7764 362.618 61.6982 362.618 64.9482C362.774 67.417 363.509 69.792 364.821 72.0732C366.134 74.3232 368.462 75.5264 371.806 75.6826C372.087 75.6826 372.571 75.6045 373.259 75.4482C373.977 75.2607 374.602 75.1045 375.134 74.9795C375.696 74.8232 376.259 74.6826 376.821 74.5576ZM181.947 204.558L158.931 206.104L152.79 196.12L147.4 209.948L132.4 210.323L114.775 128.151L142.009 130.823L147.025 158.854L152.369 148.495L159.681 161.573L163.525 118.167L190.009 116.245L181.947 204.558ZM216.164 208.776L195.023 209.948L193.898 159.651L186.96 161.198L189.257 149.667L213.07 139.683L216.164 208.776ZM200.789 111.276C203.007 111.276 204.914 111.651 206.507 112.401C208.132 113.12 209.46 114.011 210.492 115.073C211.523 116.104 212.226 117.011 212.601 117.792C212.976 118.636 213.164 119.558 213.164 120.558C213.164 122.089 212.835 123.651 212.179 125.245C211.523 126.808 210.726 128.151 209.789 129.276C208.851 130.401 207.96 131.058 207.117 131.245C205.492 131.495 204.273 131.62 203.46 131.62C201.398 131.62 199.601 131.261 198.07 130.542C196.539 129.823 195.32 128.776 194.414 127.401C193.507 126.026 192.945 124.417 192.726 122.573C192.726 119.917 193.367 117.433 194.648 115.12C195.96 112.808 198.007 111.526 200.789 111.276ZM212.88 121.636L236.693 111.651L240.162 165.792L259.755 155.058L280.099 158.104L253.568 178.448L278.552 197.292L279.677 216.089L242.834 189.604L244.005 212.62L221.693 213.042L217.474 131.62L210.584 133.167L212.88 121.636ZM296.785 208.776L275.644 209.948L274.519 159.651L267.582 161.198L269.879 149.667L293.691 139.683L296.785 208.776ZM281.41 111.276C283.629 111.276 285.535 111.651 287.129 112.401C288.754 113.12 290.082 114.011 291.113 115.073C292.144 116.104 292.847 117.011 293.222 117.792C293.597 118.636 293.785 119.558 293.785 120.558C293.785 122.089 293.457 123.651 292.801 125.245C292.144 126.808 291.347 128.151 290.41 129.276C289.472 130.401 288.582 131.058 287.738 131.245C286.113 131.495 284.894 131.62 284.082 131.62C282.019 131.62 280.222 131.261 278.691 130.542C277.16 129.823 275.941 128.776 275.035 127.401C274.129 126.026 273.566 124.417 273.347 122.573C273.347 119.917 273.988 117.433 275.269 115.12C276.582 112.808 278.629 111.526 281.41 111.276Z" fill="#FFCA02"/>
<path d="M14.1136 28.4795L10.9749 18.9848L0 22.6129L5.16936 32.9516L14.1136 28.4795ZM24.7543 25.0107L21.7259 15.4803L21.7129 15.4844L21.7 15.4886L24.7543 25.0107ZM35.3011 22.0107L37.7651 31.7024L37.8036 31.6926L37.842 31.6825L35.3011 22.0107ZM45.8949 19.7139L47.5389 29.5778L47.5485 29.5762L47.5581 29.5746L45.8949 19.7139ZM62.7699 19.4326L64.6476 9.6105L64.584 9.59834L64.5202 9.58699L62.7699 19.4326ZM68.7699 21.4014L64.4182 30.4049L64.4472 30.4189L64.4763 30.4327L68.7699 21.4014ZM73.8324 25.0576L66.6156 31.9799L66.6877 32.055L66.7613 32.1287L73.8324 25.0576ZM77.4886 30.4014L86.6267 26.34L86.6097 26.3016L86.5923 26.2633L77.4886 30.4014ZM72.2855 46.0107L64.2855 40.0107L64.2738 40.0264L64.2621 40.0421L72.2855 46.0107ZM60.7543 59.417L53.7409 52.2887L53.7265 52.3029L53.7121 52.3171L60.7543 59.417ZM52.1293 67.6201L45.5705 60.0714L40.7674 64.2446L42.5129 70.3633L52.1293 67.6201ZM60.5668 97.1982L66.4171 105.308L72.1081 101.203L70.1832 94.4551L60.5668 97.1982ZM48.2855 106.058L38.8473 109.362L43.2733 122.004L54.1359 114.168L48.2855 106.058ZM26.7699 44.6045L36.2081 41.3L33.8639 34.6045H26.7699V44.6045ZM23.7699 47.8389L16.3489 41.136L16.3429 41.1426L16.3369 41.1492L23.7699 47.8389ZM22.1761 49.5732V59.5732H26.3183L29.2472 56.6443L22.1761 49.5732ZM21.2386 47.5576L11.8664 51.045L11.9018 51.1399L11.939 51.2342L21.2386 47.5576ZM19.1761 41.9795L9.73946 45.2885L9.7655 45.3627L9.7927 45.4365L19.1761 41.9795ZM16.3168 34.0107L25.7088 30.5771L25.6986 30.5492L25.6882 30.5214L16.3168 34.0107ZM44.4418 41.5107L38.5128 33.458L32.9605 37.5459L34.807 44.1889L44.4418 41.5107ZM48.2855 55.3389L38.6508 58.017L43.2824 74.6793L55.4129 62.3531L48.2855 55.3389ZM59.0668 38.8389L56.8975 48.6007L57.0601 48.6369L57.2239 48.6676L59.0668 38.8389ZM14.1136 28.4795L17.2524 37.9741C21.0094 36.7321 24.5279 35.5852 27.8085 34.5329L24.7543 25.0107L21.7 15.4886C18.3556 16.5613 14.7803 17.7268 10.9749 18.9848L14.1136 28.4795ZM24.7543 25.0107L27.7826 34.5412C30.925 33.5426 34.2516 32.5957 37.7651 31.7024L35.3011 22.0107L32.8371 12.3191C28.9757 13.3008 25.271 14.3538 21.7259 15.4803L24.7543 25.0107ZM35.3011 22.0107L37.842 31.6825C41.2666 30.7829 44.4974 30.0847 47.5389 29.5778L45.8949 19.7139L44.2509 9.84993C40.5424 10.468 36.7107 11.3011 32.7602 12.3389L35.3011 22.0107ZM45.8949 19.7139L47.5581 29.5746C49.5842 29.2328 51.6835 29.0576 53.8636 29.0576V19.0576V9.05762C50.6062 9.05762 47.3931 9.31991 44.2316 9.85316L45.8949 19.7139ZM53.8636 19.0576V29.0576C56.0534 29.0576 57.776 29.0881 59.0679 29.1425C59.7122 29.1696 60.2056 29.2009 60.5682 29.232C60.9556 29.2652 61.0774 29.2885 61.0195 29.2782L62.7699 19.4326L64.5202 9.58699C62.0889 9.15476 58.2079 9.05762 53.8636 9.05762V19.0576ZM62.7699 19.4326L60.8921 29.2547C62.1937 29.5036 63.3587 29.8927 64.4182 30.4049L68.7699 21.4014L73.1216 12.3979C70.4311 11.0975 67.596 10.1742 64.6476 9.6105L62.7699 19.4326ZM68.7699 21.4014L64.4763 30.4327C65.2826 30.816 65.9809 31.3182 66.6156 31.9799L73.8324 25.0576L81.0492 18.1354C78.7463 15.7345 76.0697 13.7992 73.0635 12.37L68.7699 21.4014ZM73.8324 25.0576L66.7613 32.1287C67.3572 32.7246 67.9097 33.4938 68.385 34.5394L77.4886 30.4014L86.5923 26.2633C85.1926 23.184 83.3076 20.3906 80.9034 17.9865L73.8324 25.0576ZM77.4886 30.4014L68.3505 34.4628C68.1483 34.0079 68.0511 33.5128 68.0511 33.0732H78.0511H88.0511C88.0511 30.7587 87.5789 28.4824 86.6267 26.34L77.4886 30.4014ZM78.0511 33.0732H68.0511C68.0511 33.022 68.054 33.5644 67.4757 34.862C66.9055 36.1416 65.906 37.8501 64.2855 40.0107L72.2855 46.0107L80.2855 52.0107C84.4866 46.4092 88.0511 39.9047 88.0511 33.0732H78.0511ZM72.2855 46.0107L64.2621 40.0421C60.7045 44.8245 57.1932 48.8921 53.7409 52.2887L60.7543 59.417L67.7676 66.5453C72.0653 62.3169 76.2415 57.447 80.3089 51.9794L72.2855 46.0107ZM60.7543 59.417L53.7121 52.3171C49.8901 56.108 47.2118 58.6454 45.5705 60.0714L52.1293 67.6201L58.688 75.1688C60.8592 73.2824 63.9309 70.3509 67.7964 66.5169L60.7543 59.417ZM52.1293 67.6201L42.5129 70.3633L50.9504 99.9414L60.5668 97.1982L70.1832 94.4551L61.7457 64.8769L52.1293 67.6201ZM60.5668 97.1982L54.7164 89.0882L42.4351 97.9476L48.2855 106.058L54.1359 114.168L66.4171 105.308L60.5668 97.1982ZM48.2855 106.058L57.7238 102.753L36.2081 41.3L26.7699 44.6045L17.3316 47.909L38.8473 109.362L48.2855 106.058ZM26.7699 44.6045V34.6045C24.9522 34.6045 23.5885 35.102 23.0075 35.3369C22.3221 35.614 21.8045 35.9118 21.5098 36.0924C20.9239 36.4515 20.4967 36.7965 20.3102 36.9505C19.9014 37.2883 19.5807 37.6046 19.4293 37.7561C19.0815 38.1039 18.7275 38.4911 18.4268 38.8272L25.8793 45.4951L33.3317 52.1631C33.5623 51.9054 33.6223 51.8473 33.5714 51.8982C33.5684 51.9012 33.3669 52.1063 33.0479 52.3698C32.9063 52.4867 32.5168 52.8038 31.9611 53.1444C31.6816 53.3157 31.1773 53.6066 30.5033 53.8791C29.9338 54.1093 28.5797 54.6045 26.7699 54.6045V44.6045ZM25.8793 45.4951L18.4268 38.8272C17.9105 39.4043 17.2191 40.1726 16.3489 41.136L23.7699 47.8389L31.1909 54.5417C32.0707 53.5677 32.7855 52.7734 33.3317 52.1631L25.8793 45.4951ZM23.7699 47.8389L16.3369 41.1492C15.9262 41.6056 15.608 41.9561 15.3754 42.2093C15.259 42.336 15.1744 42.4269 15.1168 42.4882C15.0485 42.5607 15.0542 42.553 15.1051 42.5022L22.1761 49.5732L29.2472 56.6443C29.6947 56.1969 30.4271 55.3904 31.2028 54.5285L23.7699 47.8389ZM22.1761 49.5732V39.5732C25.069 39.5732 27.0739 40.8065 27.855 41.3482C28.7546 41.9722 29.3466 42.6058 29.624 42.9198C30.1914 43.5618 30.5309 44.1221 30.6221 44.2731C30.7594 44.5001 30.8479 44.6707 30.8809 44.735C30.9015 44.7755 30.9164 44.8056 30.9249 44.8232C30.9336 44.8412 30.9383 44.8512 30.9387 44.852C30.9387 44.8522 30.9284 44.8299 30.9066 44.7799C30.8852 44.731 30.8567 44.6645 30.8205 44.5781C30.7473 44.4033 30.6539 44.1735 30.5382 43.881L21.2386 47.5576L11.939 51.2342C12.2228 51.952 12.5205 52.6766 12.8042 53.2866C12.9265 53.5495 13.172 54.0666 13.5075 54.6215C13.6495 54.8564 14.033 55.4797 14.6374 56.1637C14.9334 56.4986 15.5422 57.1481 16.457 57.7825C17.2532 58.3347 19.2715 59.5732 22.1761 59.5732V49.5732ZM21.2386 47.5576L30.6108 44.0703C30.1164 42.7414 29.4332 40.8937 28.5596 38.5224L19.1761 41.9795L9.7927 45.4365C10.6691 47.8153 11.3609 49.6863 11.8664 51.045L21.2386 47.5576ZM19.1761 41.9795L28.6128 38.6705C27.7518 36.215 26.7834 33.5164 25.7088 30.5771L16.3168 34.0107L6.92474 37.4444C7.97514 40.3176 8.913 42.9315 9.73946 45.2885L19.1761 41.9795ZM16.3168 34.0107L25.6882 30.5214C24.6559 27.7487 23.7244 25.3403 23.0579 24.0074L14.1136 28.4795L5.16936 32.9516C5.149 32.9109 5.2906 33.2091 5.65548 34.1251C5.98366 34.9491 6.41158 36.0667 6.9453 37.5001L16.3168 34.0107ZM44.4418 41.5107L34.807 44.1889L38.6508 58.017L48.2855 55.3389L57.9202 52.6607L54.0765 38.8326L44.4418 41.5107ZM48.2855 55.3389L55.4129 62.3531C57.6031 60.1276 60.1931 57.225 63.1461 53.7264L55.5043 47.2764L47.8624 40.8264C45.0654 44.1403 42.8429 46.6126 41.1581 48.3246L48.2855 55.3389ZM55.5043 47.2764L63.1461 53.7264C64.7749 51.7966 66.2558 49.8334 67.3804 47.902C68.3388 46.2561 69.8168 43.3567 69.8168 39.8701H59.8168H49.8168C49.8168 38.7482 50.0663 38.0077 50.1365 37.8123C50.2187 37.5835 50.2473 37.5798 50.0969 37.8382C49.784 38.3755 49.1086 39.3499 47.8624 40.8264L55.5043 47.2764ZM59.8168 39.8701H69.8168C69.8168 38.2761 69.4914 35.7256 67.7166 33.2853C65.8033 30.6544 63.1442 29.4291 60.9096 29.0101L59.0668 38.8389L57.2239 48.6676C55.4893 48.3424 53.2052 47.3358 51.5419 45.0487C50.0171 42.9521 49.8168 40.8704 49.8168 39.8701H59.8168ZM59.0668 38.8389L61.2361 29.077C59.1514 28.6137 57.0334 28.3701 54.8949 28.3701V38.3701V48.3701C55.5064 48.3701 56.1696 48.439 56.8975 48.6007L59.0668 38.8389ZM54.8949 38.3701V28.3701C49.0075 28.3701 43.3511 29.8957 38.5128 33.458L44.4418 41.5107L50.3707 49.5635C51.2199 48.9383 52.5322 48.3701 54.8949 48.3701V38.3701ZM115.174 52.1982L110.394 60.9814L110.424 60.9983L110.455 61.0149L115.174 52.1982ZM120.565 57.0264L112.284 62.632L112.334 62.7055L112.385 62.7781L120.565 57.0264ZM123.612 63.8232L113.903 66.2204L113.921 66.2914L113.939 66.3622L123.612 63.8232ZM124.034 78.167L114.19 76.404L114.177 76.4754L114.166 76.5469L124.034 78.167ZM120.377 88.3857L112.155 82.6936L112.113 82.7557L112.07 82.8184L120.377 88.3857ZM107.159 101.136L111.955 109.91L112 109.886L112.045 109.861L107.159 101.136ZM100.174 103.948L97.6873 94.2624L97.6095 94.2824L97.5319 94.3037L100.174 103.948ZM85.7836 103.62L89.0926 94.1834L89.0566 94.1708L89.0205 94.1585L85.7836 103.62ZM79.6899 100.386L73.2965 108.075L73.3779 108.143L73.4606 108.209L79.6899 100.386ZM73.1743 91.0576L63.8793 94.7461L63.8844 94.7588L63.8895 94.7715L73.1743 91.0576ZM77.3461 60.3545L84.6354 67.2005L84.6433 67.192L77.3461 60.3545ZM88.8774 51.4014L93.3776 60.3315L93.4056 60.3174L93.4334 60.3032L88.8774 51.4014ZM108.096 49.292L105.42 58.9272L105.482 58.9445L105.545 58.961L108.096 49.292ZM112.409 60.0732L122.024 57.326L102.65 57.8903L112.409 60.0732ZM108.94 66.3545L101.808 59.3452L101.777 59.3767L101.746 59.4085L108.94 66.3545ZM101.534 68.417L95.2867 76.2257L95.6255 76.4968L95.9866 76.7375L101.534 68.417ZM101.534 60.2139L93.2986 54.5408L93.2554 54.6035L93.2131 54.6669L101.534 60.2139ZM106.081 56.8857L109.746 66.1898L106.081 46.8857V56.8857ZM100.081 58.0576L96.3408 48.7832L96.3145 48.7938L96.2883 48.8046L100.081 58.0576ZM95.1586 61.1045L101.792 68.588L101.839 68.5462L101.885 68.5039L95.1586 61.1045ZM91.8305 65.2764L83.0314 60.5249L83.0141 60.557L82.997 60.5892L91.8305 65.2764ZM94.643 76.8545L89.2552 85.279L89.2613 85.2829L89.2674 85.2868L94.643 76.8545ZM107.674 77.042L114.171 84.6443L114.21 84.6105L114.25 84.5762L107.674 77.042ZM111.612 71.3232L120.922 74.972L120.931 74.9509L120.939 74.9297L111.612 71.3232ZM115.174 52.1982L110.455 61.0149C111.282 61.4575 111.842 61.98 112.284 62.632L120.565 57.0264L128.846 51.4207C126.537 48.0103 123.504 45.314 119.893 43.3816L115.174 52.1982ZM120.565 57.0264L112.385 62.7781C113.032 63.6985 113.556 64.8117 113.903 66.2204L123.612 63.8232L133.32 61.4261C132.418 57.7723 130.911 54.3543 128.745 51.2746L120.565 57.0264ZM123.612 63.8232L113.939 66.3622C114.367 67.9915 114.596 69.7451 114.596 71.6514H124.596H134.596C134.596 68.1202 134.169 64.6549 133.284 61.2843L123.612 63.8232ZM124.596 71.6514H114.596C114.596 73.3441 114.455 74.9245 114.19 76.404L124.034 78.167L133.877 79.93C134.362 77.2219 134.596 74.4586 134.596 71.6514H124.596ZM124.034 78.167L114.166 76.5469C113.906 78.1289 113.56 79.4586 113.163 80.5693L122.581 83.9326L131.998 87.296C132.851 84.9067 133.474 82.3926 133.902 79.7871L124.034 78.167ZM122.581 83.9326L113.163 80.5693C112.762 81.6927 112.393 82.3504 112.155 82.6936L120.377 88.3857L128.599 94.0778C130.049 91.9836 131.149 89.6725 131.998 87.296L122.581 83.9326ZM120.377 88.3857L112.07 82.8184C110.459 85.2224 108.82 87.163 107.183 88.7094L114.049 95.9795L120.915 103.25C123.778 100.546 126.358 97.4241 128.684 93.9531L120.377 88.3857ZM114.049 95.9795L107.183 88.7094C105.442 90.3534 103.8 91.5553 102.273 92.4107L107.159 101.136L112.045 109.861C115.205 108.091 118.156 105.856 120.915 103.25L114.049 95.9795ZM107.159 101.136L102.362 92.3613C100.662 93.2904 99.1063 93.8981 97.6873 94.2624L100.174 103.948L102.661 113.634C105.867 112.811 108.968 111.544 111.955 109.91L107.159 101.136ZM100.174 103.948L97.5319 94.3037C96.0675 94.7049 94.69 94.8857 93.3774 94.8857V104.886V114.886C96.5647 114.886 99.7185 114.442 102.817 113.593L100.174 103.948ZM93.3774 104.886V94.8857C91.8005 94.8857 90.3915 94.6389 89.0926 94.1834L85.7836 103.62L82.4747 113.057C85.9882 114.289 89.6418 114.886 93.3774 114.886V104.886ZM85.7836 103.62L89.0205 94.1585C87.5555 93.6573 86.5771 93.0868 85.9191 92.5629L79.6899 100.386L73.4606 108.209C76.1777 110.372 79.2617 111.958 82.5468 113.082L85.7836 103.62ZM79.6899 100.386L86.0832 92.6964C84.7762 91.6097 83.5049 89.9583 82.459 87.3437L73.1743 91.0576L63.8895 94.7715C65.9687 99.9694 69.0411 104.537 73.2965 108.075L79.6899 100.386ZM73.1743 91.0576L82.4692 87.3692C81.3878 84.6442 80.8305 81.7431 80.8305 78.5889H70.8305H60.8305C60.8305 84.1847 61.8357 89.5961 63.8793 94.7461L73.1743 91.0576ZM70.8305 78.5889H80.8305C80.8305 73.0954 82.351 69.6328 84.6354 67.2005L77.3461 60.3545L70.0569 53.5085C63.6538 60.3262 60.8305 69.0198 60.8305 78.5889H70.8305ZM77.3461 60.3545L84.6433 67.192C87.7333 63.8943 90.6617 61.7002 93.3776 60.3315L88.8774 51.4014L84.3771 42.4712C79.1556 45.1026 74.3965 48.8772 70.049 53.517L77.3461 60.3545ZM88.8774 51.4014L93.4334 60.3032C96.0969 58.94 98.6068 58.3545 101.065 58.3545V48.3545V38.3545C95.2105 38.3545 89.5953 39.8003 84.3213 42.4995L88.8774 51.4014ZM101.065 48.3545V58.3545C102.638 58.3545 104.079 58.5547 105.42 58.9272L108.096 49.292L110.773 39.6568C107.614 38.7793 104.367 38.3545 101.065 38.3545V48.3545ZM108.096 49.292L105.545 58.961C106.878 59.3129 108.489 59.9449 110.394 60.9814L115.174 52.1982L119.955 43.415C116.922 41.7641 113.814 40.4586 110.648 39.623L108.096 49.292ZM112.409 60.0732L102.65 57.8903C102.545 58.3601 102.341 58.8029 101.808 59.3452L108.94 66.3545L116.072 73.3638C119.102 70.2811 121.21 66.5363 122.167 62.2561L112.409 60.0732ZM108.94 66.3545L101.746 59.4085C101.401 59.7653 101.364 59.7116 101.674 59.5479C102.034 59.3584 102.771 59.0732 103.784 59.0732V69.0732V79.0732C109.276 79.0732 113.424 76.1069 116.134 73.3004L108.94 66.3545ZM103.784 69.0732V59.0732C104.77 59.0732 105.978 59.3613 107.081 60.0965L101.534 68.417L95.9866 76.7375C98.4019 78.3477 101.11 79.0732 103.784 79.0732V69.0732ZM101.534 68.417L107.781 60.6083C108.981 61.5683 109.609 62.7017 109.896 63.5068C110.155 64.231 110.127 64.6412 110.127 64.4795H100.127H90.1274C90.1274 67.6723 90.8987 72.7153 95.2867 76.2257L101.534 68.417ZM100.127 64.4795H110.127C110.127 64.8681 110.061 65.2089 109.976 65.4659C109.895 65.7113 109.821 65.8099 109.854 65.7609L101.534 60.2139L93.2131 54.6669C91.377 57.421 90.1274 60.7409 90.1274 64.4795H100.127ZM101.534 60.2139L109.769 65.8869C109.667 66.0353 109.565 66.1532 109.478 66.2416C109.391 66.329 109.328 66.3785 109.303 66.3965C109.259 66.4288 109.372 66.3369 109.746 66.1898L106.081 56.8857L102.415 47.5817C99.0486 48.9079 95.6881 51.0721 93.2986 54.5408L101.534 60.2139ZM106.081 56.8857V46.8857C102.72 46.8857 99.4512 47.529 96.3408 48.7832L100.081 58.0576L103.82 67.332C104.585 67.0237 105.316 66.8857 106.081 66.8857V56.8857ZM100.081 58.0576L96.2883 48.8046C93.4199 49.9801 90.7581 51.5903 88.4319 53.7051L95.1586 61.1045L101.885 68.5039C102.309 68.1187 102.929 67.6976 103.873 67.3107L100.081 58.0576ZM95.1586 61.1045L88.5256 53.621C86.305 55.5892 84.4509 57.8962 83.0314 60.5249L91.8305 65.2764L100.63 70.0279C100.898 69.5315 101.262 69.0573 101.792 68.588L95.1586 61.1045ZM91.8305 65.2764L82.997 60.5892C81.5038 63.4033 80.6118 66.5475 80.6118 69.917H90.6118H100.612C100.612 69.9611 100.609 70.0042 100.604 70.0436C100.599 70.0828 100.592 70.1107 100.588 70.1251C100.585 70.1392 100.585 70.1342 100.595 70.1091C100.605 70.0836 100.626 70.0352 100.664 69.9635L91.8305 65.2764ZM90.6118 69.917H80.6118C80.6118 76.6126 84.0281 81.936 89.2552 85.279L94.643 76.8545L100.031 68.43C99.7715 68.2642 99.9974 68.345 100.266 68.8069C100.394 69.0267 100.489 69.2638 100.548 69.4918C100.605 69.7152 100.612 69.868 100.612 69.917H90.6118ZM94.643 76.8545L89.2674 85.2868C92.8736 87.5857 97.0966 89.2451 101.768 89.2451V79.2451V69.2451C101.939 69.2451 101.412 69.3108 100.019 68.4222L94.643 76.8545ZM101.768 79.2451V89.2451C106.418 89.2451 110.679 87.6283 114.171 84.6443L107.674 77.042L101.178 69.4397C101.14 69.4719 101.221 69.3967 101.414 69.3249C101.501 69.2922 101.586 69.2704 101.658 69.2577C101.729 69.2453 101.769 69.2451 101.768 69.2451V79.2451ZM107.674 77.042L114.25 84.5762C117.284 81.9278 119.483 78.645 120.922 74.972L111.612 71.3232L102.301 67.6745C101.928 68.6265 101.502 69.1562 101.099 69.5077L107.674 77.042ZM111.612 71.3232L120.939 74.9297C122.245 71.5524 122.971 68.0197 122.971 64.3857H112.971H102.971C102.971 65.3143 102.791 66.4066 102.285 67.7168L111.612 71.3232ZM112.971 64.3857H122.971C122.971 62.0256 122.688 59.6501 122.024 57.326L112.409 60.0732L102.793 62.8205C102.879 63.1214 102.971 63.6209 102.971 64.3857H112.971ZM118.735 24.6357L114.868 15.4136L109.966 17.469L108.928 22.6823L118.735 24.6357ZM142.547 14.6514L152.527 14.012L151.629 -7.62939e-06L138.681 5.42921L142.547 14.6514ZM146.016 68.792L136.037 69.4314L137.041 85.1112L150.821 77.5621L146.016 68.792ZM165.61 58.0576L167.091 48.1679L163.76 47.669L160.805 49.2875L165.61 58.0576ZM185.954 61.1045L192.039 69.0401L210.734 54.7044L187.435 51.2148L185.954 61.1045ZM159.422 81.4482L153.337 73.5126L142.903 81.514L153.401 89.432L159.422 81.4482ZM184.407 100.292L194.389 99.6946L194.113 95.0874L190.428 92.3082L184.407 100.292ZM185.532 119.089L179.695 127.209L196.77 139.483L195.514 118.491L185.532 119.089ZM148.688 92.6045L154.525 84.4846L137.644 72.3501L138.701 93.113L148.688 92.6045ZM149.86 115.62L150.049 125.618L160.372 125.423L159.847 115.112L149.86 115.62ZM127.547 116.042L117.561 116.559L118.061 126.223L127.736 126.04L127.547 116.042ZM123.329 34.6201L133.315 34.1027L132.702 22.267L121.138 24.863L123.329 34.6201ZM116.438 36.167L106.631 34.2135L103.627 49.2918L118.628 45.9242L116.438 36.167ZM118.735 24.6357L122.602 33.8579L146.414 23.8735L142.547 14.6514L138.681 5.42921L114.868 15.4136L118.735 24.6357ZM142.547 14.6514L132.568 15.2907L136.037 69.4314L146.016 68.792L155.996 68.1526L152.527 14.012L142.547 14.6514ZM146.016 68.792L150.821 77.5621L170.415 66.8277L165.61 58.0576L160.805 49.2875L141.211 60.0219L146.016 68.792ZM165.61 58.0576L164.129 67.9473L184.472 70.9942L185.954 61.1045L187.435 51.2148L167.091 48.1679L165.61 58.0576ZM185.954 61.1045L179.869 53.1689L153.337 73.5126L159.422 81.4482L165.507 89.3839L192.039 69.0401L185.954 61.1045ZM159.422 81.4482L153.401 89.432L178.385 108.276L184.407 100.292L190.428 92.3082L165.444 73.4644L159.422 81.4482ZM184.407 100.292L174.425 100.889L175.55 119.686L185.532 119.089L195.514 118.491L194.389 99.6946L184.407 100.292ZM185.532 119.089L191.369 110.969L154.525 84.4846L148.688 92.6045L142.851 100.724L179.695 127.209L185.532 119.089ZM148.688 92.6045L138.701 93.113L139.873 116.129L149.86 115.62L159.847 115.112L158.675 92.096L148.688 92.6045ZM149.86 115.62L149.671 105.622L127.358 106.044L127.547 116.042L127.736 126.04L150.049 125.618L149.86 115.62ZM127.547 116.042L137.534 115.525L133.315 34.1027L123.329 34.6201L113.342 35.1376L117.561 116.559L127.547 116.042ZM123.329 34.6201L121.138 24.863L114.248 26.4098L116.438 36.167L118.628 45.9242L125.519 44.3773L123.329 34.6201ZM116.438 36.167L126.245 38.1205L128.542 26.5892L118.735 24.6357L108.928 22.6823L106.631 34.2135L116.438 36.167ZM220.499 77.042L228.2 70.6636L218.943 59.4851L211.795 72.1176L220.499 77.042ZM231.796 90.6826L241.248 93.946L243.082 88.6331L239.497 84.3042L231.796 90.6826ZM225.327 97.9014L219.923 89.4871L219.905 89.4984L219.888 89.5098L225.327 97.9014ZM213.233 103.058L210.656 93.3953L210.618 93.4055L210.58 93.416L213.233 103.058ZM188.202 103.339L184.984 112.807L184.998 112.812L185.012 112.817L188.202 103.339ZM180.749 98.3701L188.6 92.1773L188.588 92.1619L188.576 92.1467L180.749 98.3701ZM178.733 69.917L169.375 66.3917L169.368 66.4094L169.362 66.427L178.733 69.917ZM184.171 60.3545L177.301 53.0871L177.291 53.0973L177.28 53.1075L184.171 60.3545ZM191.577 54.9639L186.86 46.146L186.839 46.1575L186.817 46.1691L191.577 54.9639ZM220.077 52.5732L216.692 61.9832L216.742 62.0009L216.792 62.0182L220.077 52.5732ZM229.499 58.0576L237.163 64.4813L243.38 57.0636L236.169 50.6075L229.499 58.0576ZM203.764 88.7607L196.1 82.3371L182.334 98.7607H203.764V88.7607ZM210.233 87.3545L214.424 96.4341L214.454 96.42L214.484 96.4058L210.233 87.3545ZM215.905 83.2764L223.039 90.2834L223.07 90.2519L223.101 90.2201L215.905 83.2764ZM207.514 66.1201L215.293 72.4044L223.04 62.8151L212.059 57.2125L207.514 66.1201ZM197.905 65.9795L193.944 56.7974L193.911 56.8117L193.877 56.8263L197.905 65.9795ZM194.577 68.417L202.481 74.5427L202.63 74.3507L202.769 74.1516L194.577 68.417ZM193.124 83.9326L183.555 86.8374L189.039 104.902L200.902 90.2169L193.124 83.9326ZM183.421 32.3232L178.578 23.5739L169.259 28.7316L174.994 37.7071L183.421 32.3232ZM208.405 18.4951L216.787 13.0419L211.709 5.23672L203.562 9.74581L208.405 18.4951ZM219.139 34.9951L221.007 44.8192L235.649 42.0355L227.522 29.5419L219.139 34.9951ZM188.811 40.7607L180.384 46.1446L184.029 51.849L190.679 50.5848L188.811 40.7607ZM220.499 77.042L212.797 83.4204L224.094 97.061L231.796 90.6826L239.497 84.3042L228.2 70.6636L220.499 77.042ZM231.796 90.6826L222.343 87.4192C222.439 87.1417 222.276 87.9761 219.923 89.4871L225.327 97.9014L230.73 106.316C235.19 103.452 239.34 99.4735 241.248 93.946L231.796 90.6826ZM225.327 97.9014L219.888 89.5098C217.554 91.0223 214.531 92.362 210.656 93.3953L213.233 103.058L215.81 112.72C221.31 111.253 226.349 109.155 230.766 106.293L225.327 97.9014ZM213.233 103.058L210.58 93.416C206.756 94.4683 202.991 94.9795 199.264 94.9795V104.979V114.979C204.85 114.979 210.398 114.209 215.886 112.699L213.233 103.058ZM199.264 104.979V94.9795C196.011 94.9795 193.429 94.547 191.391 93.8612L188.202 103.339L185.012 112.817C189.474 114.318 194.268 114.979 199.264 114.979V104.979ZM188.202 103.339L191.419 93.8706C189.654 93.2707 188.93 92.5957 188.6 92.1773L180.749 98.3701L172.897 104.563C176.067 108.582 180.312 111.22 184.984 112.807L188.202 103.339ZM180.749 98.3701L188.576 92.1467C187.239 90.4654 186.202 87.9325 186.202 83.7451H176.202H166.202C166.202 91.4327 168.195 98.6499 172.921 104.594L180.749 98.3701ZM176.202 83.7451H186.202C186.202 80.2867 186.819 76.8574 188.104 73.407L178.733 69.917L169.362 66.427C167.272 72.0391 166.202 77.8285 166.202 83.7451H176.202ZM178.733 69.917L188.091 73.4423C188.822 71.5013 189.495 70.0667 190.074 69.0475C190.36 68.5454 190.599 68.1857 190.782 67.9395C190.967 67.6914 191.065 67.5974 191.061 67.6015L184.171 60.3545L177.28 53.1075C173.705 56.5067 171.246 61.4241 169.375 66.3917L178.733 69.917ZM184.171 60.3545L191.04 67.6219C192.712 66.0409 194.476 64.7651 196.336 63.7586L191.577 54.9639L186.817 46.1691C183.365 48.0377 180.191 50.3556 177.301 53.0871L184.171 60.3545ZM191.577 54.9639L196.293 63.7817C198.277 62.7207 200.29 61.9448 202.346 61.4309L199.921 51.7295L197.495 42.0281C193.801 42.9517 190.252 44.3321 186.86 46.146L191.577 54.9639ZM199.921 51.7295L202.346 61.4309C204.41 60.915 206.547 60.6514 208.78 60.6514V50.6514V40.6514C204.95 40.6514 201.181 41.1065 197.495 42.0281L199.921 51.7295ZM208.78 50.6514V60.6514C211.651 60.6514 214.267 61.111 216.692 61.9832L220.077 52.5732L223.461 43.1633C218.761 41.473 213.846 40.6514 208.78 40.6514V50.6514ZM220.077 52.5732L216.792 62.0182C219.206 62.8579 221.179 64.0316 222.828 65.5078L229.499 58.0576L236.169 50.6075C232.443 47.2711 228.135 44.7886 223.362 43.1283L220.077 52.5732ZM229.499 58.0576L221.835 51.6339L196.1 82.3371L203.764 88.7607L211.428 95.1844L237.163 64.4813L229.499 58.0576ZM203.764 88.7607V98.7607C207.463 98.7607 211.052 97.9902 214.424 96.4341L210.233 87.3545L206.042 78.2749C205.351 78.5938 204.628 78.7607 203.764 78.7607V88.7607ZM210.233 87.3545L214.484 96.4058C217.701 94.8948 220.552 92.8156 223.039 90.2834L215.905 83.2764L208.77 76.2693C207.82 77.2372 206.89 77.8766 205.982 78.3032L210.233 87.3545ZM215.905 83.2764L223.101 90.2201C225.462 87.7736 227.485 85.0012 229.202 81.9663L220.499 77.042L211.795 72.1176C210.825 73.8328 209.786 75.2167 208.709 76.3327L215.905 83.2764ZM207.514 66.1201L212.059 57.2125C209.233 55.7709 206.123 54.9482 202.827 54.9482V64.9482V74.9482C202.816 74.9482 202.802 74.9475 202.788 74.9458C202.774 74.9441 202.767 74.9422 202.769 74.9426C202.77 74.9431 202.786 74.9471 202.818 74.959C202.849 74.971 202.9 74.9922 202.97 75.0277L207.514 66.1201ZM202.827 64.9482V54.9482C199.738 54.9482 196.752 55.5861 193.944 56.7974L197.905 65.9795L201.866 75.1616C202.245 74.9979 202.541 74.9482 202.827 74.9482V64.9482ZM197.905 65.9795L193.877 56.8263C191.407 57.9131 188.485 59.6822 186.384 62.6824L194.577 68.417L202.769 74.1516C202.357 74.7404 201.966 75.0576 201.81 75.1721C201.658 75.2832 201.663 75.2509 201.932 75.1326L197.905 65.9795ZM194.577 68.417L186.673 62.2913C183.456 66.4422 181.671 71.3234 181.671 76.667H191.671H201.671C201.671 76.0106 201.823 75.3918 202.481 74.5427L194.577 68.417ZM191.671 76.667H181.671C181.671 78.4305 181.847 80.1965 182.23 81.9446L191.999 79.8076L201.768 77.6706C201.713 77.4187 201.671 77.091 201.671 76.667H191.671ZM191.999 79.8076L182.23 81.9446C182.532 83.3286 182.996 84.9975 183.555 86.8374L193.124 83.9326L202.692 81.0278C202.188 79.3677 201.902 78.2867 201.768 77.6706L191.999 79.8076ZM193.124 83.9326L200.902 90.2169L215.293 72.4044L207.514 66.1201L199.736 59.8358L185.345 77.6483L193.124 83.9326ZM183.421 32.3232L188.263 41.0725L213.247 27.2444L208.405 18.4951L203.562 9.74581L178.578 23.5739L183.421 32.3232ZM208.405 18.4951L200.023 23.9483L210.757 40.4483L219.139 34.9951L227.522 29.5419L216.787 13.0419L208.405 18.4951ZM219.139 34.9951L217.272 25.1711L186.943 30.9367L188.811 40.7607L190.679 50.5848L221.007 44.8192L219.139 34.9951ZM188.811 40.7607L197.238 35.3768L191.847 26.9393L183.421 32.3232L174.994 37.7071L180.384 46.1446L188.811 40.7607ZM270.606 41.1357L269.802 31.1682L260.207 31.9425L260.615 41.5595L270.606 41.1357ZM273.278 104.136V114.136H283.711L283.269 103.712L273.278 104.136ZM263.294 103.948L263.728 93.9577L263.674 93.9553L263.62 93.9536L263.294 103.948ZM255.465 103.339L256.787 93.4266L256.722 93.4179L256.657 93.4101L255.465 103.339ZM250.262 102.214L240.275 102.726L240.598 109.021L246.416 111.445L250.262 102.214ZM247.169 41.8857L257.155 41.3736L256.662 31.7476L247.024 31.8868L247.169 41.8857ZM217.965 42.3076L207.968 42.0793L207.731 52.4565L218.11 52.3066L217.965 42.3076ZM218.387 23.8389L217.725 13.8608L208.599 14.4666L208.39 23.6105L218.387 23.8389ZM293.247 18.8701L303.23 18.295L302.65 8.22398L292.584 8.89207L293.247 18.8701ZM294.419 39.2139L295.223 49.1815L304.964 48.3953L304.402 38.6388L294.419 39.2139ZM270.606 41.1357L260.615 41.5595L263.287 104.559L273.278 104.136L283.269 103.712L280.597 40.712L270.606 41.1357ZM273.278 104.136V94.1357H270.419V104.136V114.136H273.278V104.136ZM270.419 104.136V94.1357C268.743 94.1357 266.526 94.0793 263.728 93.9577L263.294 103.948L262.859 113.939C265.811 114.067 268.344 114.136 270.419 114.136V104.136ZM263.294 103.948L263.62 93.9536C261.009 93.8684 258.739 93.6868 256.787 93.4266L255.465 103.339L254.144 113.251C256.879 113.616 259.828 113.841 262.968 113.943L263.294 103.948ZM255.465 103.339L256.657 93.4101C255.7 93.2953 255.002 93.1768 254.52 93.0725C254.004 92.9609 253.921 92.9051 254.109 92.9831L250.262 102.214L246.416 111.445C248.851 112.459 251.702 112.959 254.274 113.268L255.465 103.339ZM250.262 102.214L260.249 101.702L257.155 41.3736L247.169 41.8857L237.182 42.3979L240.275 102.726L250.262 102.214ZM247.169 41.8857L247.024 31.8868L217.821 32.3087L217.965 42.3076L218.11 52.3066L247.313 51.8847L247.169 41.8857ZM217.965 42.3076L227.963 42.536L228.385 24.0672L218.387 23.8389L208.39 23.6105L207.968 42.0793L217.965 42.3076ZM218.387 23.8389L219.05 33.8169L293.909 28.8482L293.247 18.8701L292.584 8.89207L217.725 13.8608L218.387 23.8389ZM293.247 18.8701L283.263 19.4452L284.435 39.789L294.419 39.2139L304.402 38.6388L303.23 18.295L293.247 18.8701ZM294.419 39.2139L293.614 29.2463L269.802 31.1682L270.606 41.1357L271.411 51.1033L295.223 49.1815L294.419 39.2139ZM346.589 43.8076L352.062 52.1767L358.048 48.2616L356.277 41.3316L346.589 43.8076ZM325.589 57.542L316.31 61.2702L320.856 72.586L331.062 65.911L325.589 57.542ZM303.042 64.9482H293.042V65.2644L293.062 65.5799L303.042 64.9482ZM305.245 72.0732L296.577 77.0602L296.592 77.0861L296.607 77.112L305.245 72.0732ZM312.229 75.6826L311.763 85.6717L311.996 85.6826H312.229V75.6826ZM327.229 65.6045L336.174 61.1324L327.194 43.1742L318.271 61.1602L327.229 65.6045ZM338.667 75.4014L332.34 83.1451L332.363 83.1639L332.386 83.1825L338.667 75.4014ZM344.386 80.042L353.613 83.8953L356.48 77.0303L350.729 72.3113L344.386 80.042ZM334.964 93.4014L328.604 85.6838L334.964 93.4014ZM294.323 98.4639L289.826 107.396L289.863 107.414L289.901 107.433L294.323 98.4639ZM283.307 86.9795L274.467 91.6537L274.473 91.6642L274.478 91.6748L283.307 86.9795ZM278.057 64.9482L288.035 64.2741L288.034 64.2602L278.057 64.9482ZM279.604 47.5107L289.289 50.0031L289.297 49.9696L289.306 49.9361L279.604 47.5107ZM284.854 36.0264L276.732 30.193L276.727 30.2L276.722 30.2069L284.854 36.0264ZM310.682 24.2607V14.2607H310.606L310.529 14.2619L310.682 24.2607ZM322.682 25.7139L320.293 35.4243L320.33 35.4333L320.366 35.4419L322.682 25.7139ZM333.511 29.6982L328.87 38.5566L328.904 38.574L328.937 38.5911L333.511 29.6982ZM341.948 35.9326L334.696 42.8177L334.74 42.8648L334.786 42.9113L341.948 35.9326ZM346.589 43.8076L341.115 35.4386L320.115 49.173L325.589 57.542L331.062 65.911L352.062 52.1767L346.589 43.8076ZM325.589 57.542L334.868 53.8138C332.799 48.6647 328.569 45.7487 324.494 44.2323C320.563 42.7697 316.048 42.292 311.479 42.292V52.292V62.292C314.911 62.292 316.747 62.6893 317.519 62.9767C317.849 63.0995 317.721 63.1068 317.398 62.8295C317.03 62.5131 316.596 61.9837 316.31 61.2702L325.589 57.542ZM311.479 52.292V42.292C304.683 42.292 300.222 47.0242 297.843 50.2606L305.901 56.1826L313.959 62.1047C314.513 61.351 314.706 61.2856 314.446 61.4667C314.121 61.6933 313.081 62.292 311.479 62.292V52.292ZM305.901 56.1826L297.843 50.2606C294.662 54.5888 293.042 59.5899 293.042 64.9482H303.042H313.042C313.042 63.8066 313.328 62.9639 313.959 62.1047L305.901 56.1826ZM303.042 64.9482L293.062 65.5799C293.321 69.6793 294.549 73.5345 296.577 77.0602L305.245 72.0732L313.913 67.0863C313.316 66.0495 313.075 65.1547 313.022 64.3166L303.042 64.9482ZM305.245 72.0732L296.607 77.112C300.113 83.1225 306.122 85.4081 311.763 85.6717L312.229 75.6826L312.696 65.6935C312.078 65.6646 312.148 65.5632 312.566 65.7792C312.783 65.8914 313.044 66.0644 313.301 66.309C313.56 66.554 313.752 66.8101 313.883 67.0345L305.245 72.0732ZM312.229 75.6826V85.6826C316.554 85.6826 320.679 84.5164 324.495 82.6517L320.104 73.667L315.714 64.6823C314.03 65.5051 312.905 65.6826 312.229 65.6826V75.6826ZM320.104 73.667L324.495 82.6517C329.966 79.9781 333.65 75.1631 336.187 70.0488L327.229 65.6045L318.271 61.1602C316.808 64.1084 315.742 64.6684 315.714 64.6823L320.104 73.667ZM327.229 65.6045L318.285 70.0766C318.916 71.3391 319.702 72.2078 319.786 72.3048C320.051 72.6092 320.301 72.8651 320.472 73.0359C320.824 73.3886 321.219 73.7537 321.591 74.0905C322.357 74.7823 323.392 75.6786 324.652 76.7467L331.12 69.1201L337.588 61.4936C336.379 60.4679 335.531 59.7313 335 59.2513C334.872 59.1357 334.775 59.0463 334.705 58.9802C334.631 58.9111 334.605 58.8852 334.614 58.8938C334.619 58.8993 334.644 58.9238 334.682 58.9642C334.718 59.0023 334.787 59.0759 334.876 59.1782C334.957 59.2715 335.11 59.4514 335.292 59.6966C335.386 59.8228 335.511 59.9978 335.65 60.2136C335.784 60.4216 335.975 60.7344 336.174 61.1324L327.229 65.6045ZM331.12 69.1201L324.652 76.7467C327.168 78.8808 329.731 81.0136 332.34 83.1451L338.667 75.4014L344.994 67.6576C342.478 65.6016 340.009 63.547 337.588 61.4936L331.12 69.1201ZM338.667 75.4014L332.386 83.1825C334.976 85.2737 336.856 86.7996 338.042 87.7727L344.386 80.042L350.729 72.3113C349.477 71.2844 347.545 69.7166 344.948 67.6202L338.667 75.4014ZM344.386 80.042L335.158 76.1886C333.275 80.6973 331.009 83.7025 328.604 85.6838L334.964 93.4014L341.323 101.119C346.731 96.6627 350.746 90.7617 353.613 83.8953L344.386 80.042ZM334.964 93.4014L328.604 85.6838C325.629 88.1357 322.766 89.6101 320.01 90.3746L322.682 100.011L325.355 109.647C331.162 108.036 336.486 105.105 341.323 101.119L334.964 93.4014ZM322.682 100.011L320.01 90.3746C316.552 91.3335 313.201 91.792 309.932 91.792V101.792V111.792C315.101 111.792 320.25 111.063 325.355 109.647L322.682 100.011ZM309.932 101.792V91.792C305.29 91.792 301.646 90.9252 298.745 89.4948L294.323 98.4639L289.901 107.433C296 110.44 302.763 111.792 309.932 111.792V101.792ZM294.323 98.4639L298.82 89.5321C296.578 88.4034 294.261 86.2792 292.137 82.2842L283.307 86.9795L274.478 91.6748C278.104 98.4923 283.13 104.024 289.826 107.396L294.323 98.4639ZM283.307 86.9795L292.148 82.3053C290.174 78.5722 288.609 72.7693 288.035 64.2741L278.057 64.9482L268.08 65.6224C268.756 75.6272 270.691 84.5118 274.467 91.6537L283.307 86.9795ZM278.057 64.9482L288.034 64.2602C287.996 63.7123 287.964 62.6201 287.964 60.8232H277.964H267.964C267.964 62.7138 267.994 64.3717 268.081 65.6363L278.057 64.9482ZM277.964 60.8232H287.964C287.964 56.9937 288.415 53.3962 289.289 50.0031L279.604 47.5107L269.92 45.0184C268.606 50.1253 267.964 55.4027 267.964 60.8232H277.964ZM279.604 47.5107L289.306 49.9361C290.077 46.8492 291.314 44.1828 292.987 41.8458L284.854 36.0264L276.722 30.2069C273.519 34.6824 271.256 39.6723 269.903 45.0854L279.604 47.5107ZM284.854 36.0264L292.977 41.8597C294.374 39.9134 296.433 38.1127 299.498 36.58L295.026 27.6357L290.554 18.6915C284.994 21.4713 280.272 25.2643 276.732 30.193L284.854 36.0264ZM295.026 27.6357L299.498 36.58C302.156 35.2511 305.818 34.3364 310.835 34.2596L310.682 24.2607L310.529 14.2619C303.297 14.3726 296.521 15.7079 290.554 18.6915L295.026 27.6357ZM310.682 24.2607V34.2607C313.941 34.2607 317.139 34.6483 320.293 35.4243L322.682 25.7139L325.071 16.0034C320.351 14.842 315.548 14.2607 310.682 14.2607V24.2607ZM322.682 25.7139L320.366 35.4419C323.57 36.2047 326.389 37.2568 328.87 38.5566L333.511 29.6982L338.151 20.8399C334.069 18.7021 329.67 17.098 324.999 15.9858L322.682 25.7139ZM333.511 29.6982L328.937 38.5911C331.303 39.8078 333.188 41.2297 334.696 42.8177L341.948 35.9326L349.2 29.0475C346.02 25.698 342.281 22.9637 338.084 20.8054L333.511 29.6982ZM341.948 35.9326L334.786 42.9113C336.151 44.3127 336.684 45.4394 336.9 46.2836L346.589 43.8076L356.277 41.3316C355.056 36.5508 352.495 32.4275 349.11 28.954L341.948 35.9326ZM376.821 74.5576L378.99 84.3195L408.54 77.753L380.894 65.4246L376.821 74.5576ZM373.352 73.0107L364.196 68.9916L360.2 78.0947L369.28 82.1438L373.352 73.0107ZM378.743 60.7295L382.271 51.3723L373.398 48.0273L369.586 56.7103L378.743 60.7295ZM405.227 70.7139L415.158 71.8901L416.079 64.1177L408.755 61.3567L405.227 70.7139ZM399.087 122.558L398.282 132.525L407.884 133.3L409.017 123.734L399.087 122.558ZM375.274 120.636L365.776 117.508L361.801 129.581L374.47 130.603L375.274 120.636ZM378.837 109.62L369.319 106.552L369.316 106.561L369.313 106.57L378.837 109.62ZM381.79 100.292L391.374 103.147L397.908 81.2108L377.373 91.3203L381.79 100.292ZM353.899 98.4639L349.402 107.396L349.44 107.414L349.477 107.433L353.899 98.4639ZM342.884 86.9795L334.043 91.6537L334.049 91.6642L334.054 91.6748L342.884 86.9795ZM337.634 64.9482L347.611 64.2741L347.61 64.2602L337.634 64.9482ZM339.181 47.5107L348.865 50.0031L348.874 49.9696L348.882 49.9361L339.181 47.5107ZM344.431 36.0264L336.308 30.193L336.303 30.2L336.298 30.2069L344.431 36.0264ZM370.259 24.2607V14.2607H370.182L370.106 14.2619L370.259 24.2607ZM382.259 25.7139L379.87 35.4243L379.906 35.4333L379.942 35.4419L382.259 25.7139ZM393.087 29.6982L388.447 38.5566L388.48 38.574L388.513 38.5911L393.087 29.6982ZM401.524 35.9326L394.272 42.8177L394.317 42.8648L394.362 42.9113L401.524 35.9326ZM406.165 43.8076L411.638 52.1767L417.625 48.2616L415.854 41.3316L406.165 43.8076ZM385.165 57.542L375.886 61.2702L380.432 72.586L390.638 65.911L385.165 57.542ZM362.618 64.9482H352.618V65.2644L352.638 65.5799L362.618 64.9482ZM364.821 72.0732L356.153 77.0602L356.168 77.0861L356.183 77.112L364.821 72.0732ZM371.806 75.6826L371.339 85.6717L371.572 85.6826H371.806V75.6826ZM373.259 75.4482L375.475 85.1996L375.629 85.1644L375.783 85.1244L373.259 75.4482ZM375.134 74.9795L377.424 84.7137L377.618 84.668L377.81 84.6147L375.134 74.9795ZM376.821 74.5576L380.894 65.4246L377.425 63.8777L373.352 73.0107L369.28 82.1438L372.748 83.6906L376.821 74.5576ZM373.352 73.0107L382.509 77.0299L387.9 64.7487L378.743 60.7295L369.586 56.7103L364.196 68.9916L373.352 73.0107ZM378.743 60.7295L375.215 70.0866L401.7 80.071L405.227 70.7139L408.755 61.3567L382.271 51.3723L378.743 60.7295ZM405.227 70.7139L395.297 69.5376L389.156 121.381L399.087 122.558L409.017 123.734L415.158 71.8901L405.227 70.7139ZM399.087 122.558L399.891 112.59L376.079 110.668L375.274 120.636L374.47 130.603L398.282 132.525L399.087 122.558ZM375.274 120.636L384.773 123.763C385.629 121.162 386.826 117.459 388.36 112.67L378.837 109.62L369.313 106.57C367.785 111.343 366.607 114.985 365.776 117.508L375.274 120.636ZM378.837 109.62L388.354 112.688C389.878 107.963 390.898 104.743 391.374 103.147L381.79 100.292L372.206 97.4372C371.806 98.779 370.858 101.778 369.319 106.552L378.837 109.62ZM381.79 100.292L377.373 91.3203C377.876 91.0728 377.675 91.2842 375.984 91.4908C374.483 91.6741 372.358 91.792 369.509 91.792V101.792V111.792C372.815 111.792 375.816 111.66 378.409 111.343C380.811 111.05 383.673 110.511 386.207 109.264L381.79 100.292ZM369.509 101.792V91.792C364.866 91.792 361.223 90.9252 358.322 89.4948L353.899 98.4639L349.477 107.433C355.576 110.44 362.339 111.792 369.509 111.792V101.792ZM353.899 98.4639L358.396 89.5321C356.155 88.4034 353.837 86.2792 351.713 82.2842L342.884 86.9795L334.054 91.6748C337.68 98.4923 342.706 104.024 349.402 107.396L353.899 98.4639ZM342.884 86.9795L351.724 82.3053C349.75 78.5722 348.185 72.7693 347.611 64.2741L337.634 64.9482L327.656 65.6224C328.332 75.6272 330.267 84.5118 334.043 91.6537L342.884 86.9795ZM337.634 64.9482L347.61 64.2602C347.572 63.7123 347.54 62.6201 347.54 60.8232H337.54H327.54C327.54 62.7138 327.57 64.3717 327.657 65.6363L337.634 64.9482ZM337.54 60.8232H347.54C347.54 56.9937 347.992 53.3962 348.865 50.0031L339.181 47.5107L329.496 45.0184C328.182 50.1253 327.54 55.4027 327.54 60.8232H337.54ZM339.181 47.5107L348.882 49.9361C349.654 46.8492 350.89 44.1828 352.563 41.8458L344.431 36.0264L336.298 30.2069C333.096 34.6824 330.832 39.6723 329.479 45.0854L339.181 47.5107ZM344.431 36.0264L352.553 41.8597C353.951 39.9134 356.009 38.1127 359.075 36.58L354.602 27.6357L350.13 18.6915C344.571 21.4713 339.848 25.2643 336.308 30.193L344.431 36.0264ZM354.602 27.6357L359.075 36.58C361.732 35.2511 365.394 34.3364 370.412 34.2596L370.259 24.2607L370.106 14.2619C362.873 14.3726 356.097 15.7079 350.13 18.6915L354.602 27.6357ZM370.259 24.2607V34.2607C373.518 34.2607 376.715 34.6483 379.87 35.4243L382.259 25.7139L384.648 16.0034C379.927 14.842 375.125 14.2607 370.259 14.2607V24.2607ZM382.259 25.7139L379.942 35.4419C383.146 36.2047 385.965 37.2568 388.447 38.5566L393.087 29.6982L397.727 20.8399C393.646 18.7021 389.246 17.098 384.575 15.9858L382.259 25.7139ZM393.087 29.6982L388.513 38.5911C390.879 39.8078 392.764 41.2297 394.272 42.8177L401.524 35.9326L408.777 29.0475C405.597 25.698 401.857 22.9637 397.66 20.8054L393.087 29.6982ZM401.524 35.9326L394.362 42.9113C395.727 44.3127 396.261 45.4394 396.476 46.2836L406.165 43.8076L415.854 41.3316C414.632 36.5508 412.071 32.4275 408.687 28.954L401.524 35.9326ZM406.165 43.8076L400.691 35.4386L379.691 49.173L385.165 57.542L390.638 65.911L411.638 52.1767L406.165 43.8076ZM385.165 57.542L394.444 53.8138C392.375 48.6647 388.146 45.7487 384.07 44.2323C380.14 42.7697 375.624 42.292 371.056 42.292V52.292V62.292C374.487 62.292 376.323 62.6893 377.096 62.9767C377.425 63.0995 377.297 63.1068 376.975 62.8295C376.606 62.5131 376.173 61.9837 375.886 61.2702L385.165 57.542ZM371.056 52.292V42.292C364.259 42.292 359.798 47.0242 357.42 50.2606L365.477 56.1826L373.535 62.1047C374.089 61.351 374.282 61.2856 374.022 61.4667C373.697 61.6933 372.657 62.292 371.056 62.292V52.292ZM365.477 56.1826L357.42 50.2606C354.238 54.5888 352.618 59.5899 352.618 64.9482H362.618H372.618C372.618 63.8066 372.904 62.9639 373.535 62.1047L365.477 56.1826ZM362.618 64.9482L352.638 65.5799C352.897 69.6793 354.125 73.5345 356.153 77.0602L364.821 72.0732L373.489 67.0863C372.892 66.0495 372.651 65.1547 372.598 64.3166L362.618 64.9482ZM364.821 72.0732L356.183 77.112C359.689 83.1225 365.698 85.4081 371.339 85.6717L371.806 75.6826L372.272 65.6935C371.654 65.6646 371.725 65.5632 372.143 65.7792C372.36 65.8914 372.62 66.0644 372.878 66.309C373.136 66.554 373.328 66.8101 373.459 67.0345L364.821 72.0732ZM371.806 75.6826V85.6826C373.34 85.6826 374.826 85.3471 375.475 85.1996L373.259 75.4482L371.042 65.6969C370.824 65.7464 370.752 65.7573 370.787 65.7516C370.809 65.7482 370.898 65.734 371.039 65.7196C371.168 65.7065 371.439 65.6826 371.806 65.6826V75.6826ZM373.259 75.4482L375.783 85.1244C376.449 84.9505 376.993 84.8151 377.424 84.7137L375.134 74.9795L372.843 65.2453C372.212 65.3939 371.505 65.571 370.734 65.7721L373.259 75.4482ZM375.134 74.9795L377.81 84.6147C378.207 84.5045 378.6 84.4062 378.99 84.3195L376.821 74.5576L374.652 64.7957C373.917 64.959 373.185 65.142 372.457 65.3443L375.134 74.9795ZM181.947 204.558L182.617 214.535L191.13 213.963L191.905 205.467L181.947 204.558ZM158.931 206.104L150.413 211.343L153.577 216.487L159.602 216.082L158.931 206.104ZM152.79 196.12L161.308 190.881L150.776 173.756L143.473 192.488L152.79 196.12ZM147.4 209.948L147.65 219.945L154.301 219.779L156.717 213.58L147.4 209.948ZM132.4 210.323L122.622 212.42L124.361 220.527L132.65 220.32L132.4 210.323ZM114.775 128.151L115.751 118.199L102.126 116.862L104.997 130.249L114.775 128.151ZM142.009 130.823L151.853 129.062L150.52 121.61L142.986 120.871L142.009 130.823ZM147.025 158.854L137.181 160.616L142.38 189.672L155.912 163.439L147.025 158.854ZM152.369 148.495L161.097 143.615L152.014 127.37L143.481 143.911L152.369 148.495ZM159.681 161.573L150.953 166.454L166.781 194.762L169.642 162.455L159.681 161.573ZM163.525 118.167L162.801 108.193L154.314 108.809L153.564 117.285L163.525 118.167ZM190.009 116.245L199.968 117.154L201.039 105.418L189.285 106.271L190.009 116.245ZM181.947 204.558L181.276 194.58L158.261 196.127L158.931 206.104L159.602 216.082L182.617 214.535L181.947 204.558ZM158.931 206.104L167.449 200.866L161.308 190.881L152.79 196.12L144.273 201.359L150.413 211.343L158.931 206.104ZM152.79 196.12L143.473 192.488L138.083 206.316L147.4 209.948L156.717 213.58L162.108 199.752L152.79 196.12ZM147.4 209.948L147.15 199.951L132.15 200.326L132.4 210.323L132.65 220.32L147.65 219.945L147.4 209.948ZM132.4 210.323L142.177 208.226L124.552 126.054L114.775 128.151L104.997 130.249L122.622 212.42L132.4 210.323ZM114.775 128.151L113.798 138.104L141.033 140.775L142.009 130.823L142.986 120.871L115.751 118.199L114.775 128.151ZM142.009 130.823L132.166 132.585L137.181 160.616L147.025 158.854L156.869 157.093L151.853 129.062L142.009 130.823ZM147.025 158.854L155.912 163.439L161.256 153.079L152.369 148.495L143.481 143.911L138.138 154.27L147.025 158.854ZM152.369 148.495L143.64 153.375L150.953 166.454L159.681 161.573L168.409 156.693L161.097 143.615L152.369 148.495ZM159.681 161.573L169.642 162.455L173.486 119.049L163.525 118.167L153.564 117.285L149.72 160.691L159.681 161.573ZM163.525 118.167L164.249 128.141L190.733 126.219L190.009 116.245L189.285 106.271L162.801 108.193L163.525 118.167ZM190.009 116.245L180.051 115.336L171.988 203.648L181.947 204.558L191.905 205.467L199.968 117.154L190.009 116.245ZM216.164 208.776L216.717 218.761L226.596 218.213L226.154 208.329L216.164 208.776ZM195.023 209.948L185.025 210.172L185.257 220.505L195.576 219.933L195.023 209.948ZM193.898 159.651L203.895 159.428L203.623 147.237L191.722 149.891L193.898 159.651ZM186.96 161.198L177.153 159.245L174.155 174.299L189.137 170.959L186.96 161.198ZM189.257 149.667L185.391 140.445L180.488 142.5L179.45 147.714L189.257 149.667ZM213.07 139.683L223.06 139.235L222.419 124.919L209.203 130.46L213.07 139.683ZM200.789 111.276V101.276H200.34L199.893 101.317L200.789 111.276ZM206.507 112.401L202.249 121.45L202.355 121.499L202.462 121.547L206.507 112.401ZM210.492 115.073L203.316 122.038L203.368 122.092L203.421 122.144L210.492 115.073ZM212.601 117.792L221.739 113.731L221.68 113.597L221.616 113.465L212.601 117.792ZM212.179 125.245L221.399 129.117L221.413 129.085L221.426 129.053L212.179 125.245ZM207.117 131.245L208.637 141.129L208.964 141.079L209.286 141.007L207.117 131.245ZM192.726 122.573H182.726V123.164L182.796 123.751L192.726 122.573ZM194.648 115.12L185.951 110.184L185.926 110.229L185.901 110.274L194.648 115.12ZM216.164 208.776L215.61 198.792L194.47 199.964L195.023 209.948L195.576 219.933L216.717 218.761L216.164 208.776ZM195.023 209.948L205.021 209.725L203.895 159.428L193.898 159.651L183.9 159.875L185.025 210.172L195.023 209.948ZM193.898 159.651L191.722 149.891L184.784 151.438L186.96 161.198L189.137 170.959L196.074 169.412L193.898 159.651ZM186.96 161.198L196.768 163.152L199.065 151.62L189.257 149.667L179.45 147.714L177.153 159.245L186.96 161.198ZM189.257 149.667L193.124 158.889L216.937 148.905L213.07 139.683L209.203 130.46L185.391 140.445L189.257 149.667ZM213.07 139.683L203.08 140.13L206.174 209.224L216.164 208.776L226.154 208.329L223.06 139.235L213.07 139.683ZM200.789 111.276V121.276C201.906 121.276 202.287 121.467 202.249 121.45L206.507 112.401L210.765 103.353C207.54 101.836 204.108 101.276 200.789 101.276V111.276ZM206.507 112.401L202.462 121.547C203.143 121.848 203.338 122.061 203.316 122.038L210.492 115.073L217.668 108.108C215.583 105.961 213.122 104.392 210.552 103.256L206.507 112.401ZM210.492 115.073L203.421 122.144C203.564 122.287 203.673 122.403 203.753 122.493C203.834 122.583 203.877 122.637 203.892 122.656C203.907 122.676 203.882 122.646 203.831 122.567C203.781 122.488 203.691 122.338 203.586 122.119L212.601 117.792L221.616 113.465C220.531 111.204 218.925 109.364 217.563 108.002L210.492 115.073ZM212.601 117.792L203.463 121.853C203.224 121.315 203.164 120.839 203.164 120.558H213.164H223.164C223.164 118.276 222.728 115.956 221.739 113.731L212.601 117.792ZM213.164 120.558H203.164C203.164 120.629 203.154 120.9 202.932 121.438L212.179 125.245L221.426 129.053C222.517 126.402 223.164 123.549 223.164 120.558H213.164ZM212.179 125.245L202.959 121.373C202.628 122.161 202.318 122.621 202.106 122.875L209.789 129.276L217.471 135.678C219.134 133.682 220.418 131.454 221.399 129.117L212.179 125.245ZM209.789 129.276L202.106 122.875C201.997 123.005 202.114 122.836 202.486 122.562C202.86 122.286 203.686 121.764 204.947 121.483L207.117 131.245L209.286 141.007C213.338 140.107 216.009 137.433 217.471 135.678L209.789 129.276ZM207.117 131.245L205.596 121.361C204.898 121.469 204.36 121.538 203.964 121.579C203.542 121.622 203.402 121.62 203.46 121.62V131.62V141.62C205.07 141.62 206.909 141.395 208.637 141.129L207.117 131.245ZM203.46 131.62V121.62C202.551 121.62 202.262 121.463 202.319 121.49L198.07 130.542L193.821 139.594C196.941 141.059 200.245 141.62 203.46 141.62V131.62ZM198.07 130.542L202.319 121.49C202.328 121.494 202.411 121.536 202.523 121.632C202.636 121.729 202.718 121.829 202.763 121.898L194.414 127.401L186.064 132.905C188.013 135.861 190.67 138.115 193.821 139.594L198.07 130.542ZM194.414 127.401L202.763 121.898C202.779 121.922 202.771 121.919 202.752 121.864C202.731 121.804 202.688 121.658 202.656 121.395L192.726 122.573L182.796 123.751C183.174 126.942 184.198 130.073 186.064 132.905L194.414 127.401ZM192.726 122.573H202.726C202.726 121.604 202.94 120.789 203.395 119.967L194.648 115.12L185.901 110.274C183.794 114.077 182.726 118.23 182.726 122.573H192.726ZM194.648 115.12L203.345 120.056C203.267 120.194 202.995 120.575 202.473 120.901C201.969 121.217 201.614 121.242 201.684 121.236L200.789 111.276L199.893 101.317C194.04 101.843 188.977 104.853 185.951 110.184L194.648 115.12ZM212.88 121.636L209.014 112.414L204.112 114.469L203.073 119.682L212.88 121.636ZM236.693 111.651L246.673 111.012L245.775 97L232.826 102.429L236.693 111.651ZM240.162 165.792L230.182 166.431L231.187 182.111L244.966 174.562L240.162 165.792ZM259.755 155.058L261.237 145.168L257.905 144.669L254.951 146.287L259.755 155.058ZM280.099 158.104L286.184 166.04L304.88 151.704L281.58 148.215L280.099 158.104ZM253.568 178.448L247.483 170.513L237.048 178.514L247.546 186.432L253.568 178.448ZM278.552 197.292L288.535 196.695L288.259 192.087L284.574 189.308L278.552 197.292ZM279.677 216.089L273.841 224.209L290.916 236.483L289.66 215.491L279.677 216.089ZM242.834 189.604L248.67 181.485L231.789 169.35L232.847 190.113L242.834 189.604ZM244.005 212.62L244.195 222.618L254.518 222.423L253.993 212.112L244.005 212.62ZM221.693 213.042L211.706 213.559L212.207 223.223L221.882 223.04L221.693 213.042ZM217.474 131.62L227.461 131.103L226.848 119.267L215.284 121.863L217.474 131.62ZM210.584 133.167L200.776 131.214L197.773 146.292L212.774 142.924L210.584 133.167ZM212.88 121.636L216.747 130.858L240.56 120.874L236.693 111.651L232.826 102.429L209.014 112.414L212.88 121.636ZM236.693 111.651L226.713 112.291L230.182 166.431L240.162 165.792L250.141 165.153L246.673 111.012L236.693 111.651ZM240.162 165.792L244.966 174.562L264.56 163.828L259.755 155.058L254.951 146.287L235.357 157.022L240.162 165.792ZM259.755 155.058L258.274 164.947L278.618 167.994L280.099 158.104L281.58 148.215L261.237 145.168L259.755 155.058ZM280.099 158.104L274.014 150.169L247.483 170.513L253.568 178.448L259.653 186.384L286.184 166.04L280.099 158.104ZM253.568 178.448L247.546 186.432L272.531 205.276L278.552 197.292L284.574 189.308L259.59 170.464L253.568 178.448ZM278.552 197.292L268.57 197.889L269.695 216.686L279.677 216.089L289.66 215.491L288.535 196.695L278.552 197.292ZM279.677 216.089L285.514 207.969L248.67 181.485L242.834 189.604L236.997 197.724L273.841 224.209L279.677 216.089ZM242.834 189.604L232.847 190.113L234.018 213.129L244.005 212.62L253.993 212.112L252.821 189.096L242.834 189.604ZM244.005 212.62L243.816 202.622L221.504 203.044L221.693 213.042L221.882 223.04L244.195 222.618L244.005 212.62ZM221.693 213.042L231.68 212.525L227.461 131.103L217.474 131.62L207.488 132.138L211.706 213.559L221.693 213.042ZM217.474 131.62L215.284 121.863L208.393 123.41L210.584 133.167L212.774 142.924L219.665 141.377L217.474 131.62ZM210.584 133.167L220.391 135.12L222.688 123.589L212.88 121.636L203.073 119.682L200.776 131.214L210.584 133.167ZM296.785 208.776L297.338 218.761L307.217 218.213L306.775 208.329L296.785 208.776ZM275.644 209.948L265.647 210.172L265.878 220.505L276.198 219.933L275.644 209.948ZM274.519 159.651L284.517 159.428L284.244 147.237L272.343 149.891L274.519 159.651ZM267.582 161.198L257.774 159.245L254.776 174.299L269.758 170.959L267.582 161.198ZM269.879 149.667L266.012 140.445L261.11 142.5L260.071 147.714L269.879 149.667ZM293.691 139.683L303.681 139.235L303.04 124.919L289.824 130.46L293.691 139.683ZM281.41 111.276V101.276H280.961L280.515 101.317L281.41 111.276ZM287.129 112.401L282.871 121.45L282.977 121.499L283.084 121.547L287.129 112.401ZM291.113 115.073L283.937 122.038L283.989 122.092L284.042 122.144L291.113 115.073ZM293.222 117.792L302.361 113.731L302.301 113.597L302.238 113.465L293.222 117.792ZM292.801 125.245L302.02 129.117L302.034 129.085L302.047 129.053L292.801 125.245ZM287.738 131.245L289.259 141.129L289.585 141.079L289.907 141.007L287.738 131.245ZM273.347 122.573H263.347V123.164L263.417 123.751L273.347 122.573ZM275.269 115.12L266.572 110.184L266.547 110.229L266.522 110.274L275.269 115.12ZM296.785 208.776L296.231 198.792L275.091 199.964L275.644 209.948L276.198 219.933L297.338 218.761L296.785 208.776ZM275.644 209.948L285.642 209.725L284.517 159.428L274.519 159.651L264.522 159.875L265.647 210.172L275.644 209.948ZM274.519 159.651L272.343 149.891L265.405 151.438L267.582 161.198L269.758 170.959L276.696 169.412L274.519 159.651ZM267.582 161.198L277.389 163.152L279.686 151.62L269.879 149.667L260.071 147.714L257.774 159.245L267.582 161.198ZM269.879 149.667L273.745 158.889L297.558 148.905L293.691 139.683L289.824 130.46L266.012 140.445L269.879 149.667ZM293.691 139.683L283.701 140.13L286.795 209.224L296.785 208.776L306.775 208.329L303.681 139.235L293.691 139.683ZM281.41 111.276V121.276C282.528 121.276 282.908 121.467 282.871 121.45L287.129 112.401L291.387 103.353C288.162 101.836 284.73 101.276 281.41 101.276V111.276ZM287.129 112.401L283.084 121.547C283.764 121.848 283.959 122.061 283.937 122.038L291.113 115.073L298.289 108.108C296.204 105.961 293.743 104.392 291.174 103.256L287.129 112.401ZM291.113 115.073L284.042 122.144C284.185 122.287 284.294 122.403 284.374 122.493C284.455 122.583 284.498 122.637 284.513 122.656C284.528 122.676 284.503 122.646 284.453 122.567C284.403 122.488 284.312 122.338 284.207 122.119L293.222 117.792L302.238 113.465C301.152 111.204 299.546 109.364 298.184 108.002L291.113 115.073ZM293.222 117.792L284.084 121.853C283.845 121.315 283.785 120.839 283.785 120.558H293.785H303.785C303.785 118.276 303.35 115.956 302.361 113.731L293.222 117.792ZM293.785 120.558H283.785C283.785 120.629 283.775 120.9 283.554 121.438L292.801 125.245L302.047 129.053C303.139 126.402 303.785 123.549 303.785 120.558H293.785ZM292.801 125.245L283.581 121.373C283.25 122.161 282.939 122.621 282.728 122.875L290.41 129.276L298.092 135.678C299.755 133.682 301.039 131.454 302.02 129.117L292.801 125.245ZM290.41 129.276L282.728 122.875C282.619 123.005 282.735 122.836 283.107 122.562C283.481 122.286 284.307 121.764 285.569 121.483L287.738 131.245L289.907 141.007C293.959 140.107 296.63 137.433 298.092 135.678L290.41 129.276ZM287.738 131.245L286.217 121.361C285.519 121.469 284.982 121.538 284.585 121.579C284.163 121.622 284.023 121.62 284.082 121.62V131.62V141.62C285.691 141.62 287.53 141.395 289.259 141.129L287.738 131.245ZM284.082 131.62V121.62C283.172 121.62 282.883 121.463 282.94 121.49L278.691 130.542L274.442 139.594C277.562 141.059 280.866 141.62 284.082 141.62V131.62ZM278.691 130.542L282.94 121.49C282.95 121.494 283.033 121.536 283.145 121.632C283.258 121.729 283.339 121.829 283.384 121.898L275.035 127.401L266.685 132.905C268.634 135.861 271.291 138.115 274.442 139.594L278.691 130.542ZM275.035 127.401L283.384 121.898C283.4 121.922 283.393 121.919 283.373 121.864C283.352 121.804 283.309 121.658 283.278 121.395L273.347 122.573L263.417 123.751C263.796 126.942 264.819 130.073 266.685 132.905L275.035 127.401ZM273.347 122.573H283.347C283.347 121.604 283.561 120.789 284.016 119.967L275.269 115.12L266.522 110.274C264.415 114.077 263.347 118.23 263.347 122.573H273.347ZM275.269 115.12L283.966 120.056C283.888 120.194 283.616 120.575 283.095 120.901C282.591 121.217 282.235 121.242 282.305 121.236L281.41 111.276L280.515 101.317C274.661 101.843 269.598 104.853 266.572 110.184L275.269 115.12Z" fill="#3861AB" mask="url(#path-1-outside-1_2_2)"/>
</svg>
